<svg width="224" height="200" viewBox="0 0 224 200" fill="none" xmlns="http://www.w3.org/2000/svg">
<g clip-path="url(#clip0_6305_12330)">
<path d="M43.2114 196.355C48.9937 197.554 54.862 198.295 60.7615 198.57C71.7417 199.017 82.9098 199.266 93.7111 199.506C98.1025 199.604 102.494 199.706 106.885 199.812H106.907C107.069 199.813 107.229 199.766 107.366 199.676H110.785C113.687 199.676 116.59 199.676 119.494 199.676L124.124 199.684C142.301 199.72 161.099 199.756 179.453 196.888C185.854 195.887 193.333 194.49 200.263 191.712C214.168 186.139 221.672 175.865 222.563 161.172C223.135 151.723 222.703 142.207 222.282 133.008C222.201 131.242 222.122 129.475 222.046 127.707C221.322 110.398 220.619 95.9462 219.833 82.2249C219.301 72.9201 218.543 60.6755 217.387 48.4774C215.702 30.68 201.345 17.7985 182.474 17.1525C168.506 16.6728 154.293 16.4726 140.542 16.2787C136.628 16.2249 132.645 16.2577 128.794 16.2902C122.472 16.3432 115.937 16.3976 109.543 16.0604C95.0204 15.2971 79.6246 15.9359 59.6328 18.1401C46.6284 19.5737 36.8424 23.3859 28.8314 30.1386C22.2288 35.7029 19.0104 42.1579 18.9941 49.8719C18.9883 52.3546 18.9384 54.8717 18.8453 57.3529C18.7636 59.5383 18.6126 61.7704 18.4672 63.9298C18.0576 68.5506 17.9481 73.193 18.1401 77.8279C18.2626 79.76 18.3879 81.6917 18.5158 83.6233C19.5083 98.7635 20.5345 114.419 19.4922 129.864C19.0634 136.228 19.1801 142.718 19.2928 148.994L19.3183 150.403C19.5078 161.18 21.0885 170.654 24.1517 179.368C27.4526 188.767 33.8657 194.483 43.2114 196.355Z" fill="#1BB6F9"/>
</g>
<g clip-path="url(#clip1_6305_12330)">
<path d="M87.7423 103.867C86.3585 104.061 85.4322 105.333 84.6154 106.457C84.4022 106.75 84.1979 107.035 83.9946 107.279C81.0728 110.789 78.2 114.377 75.158 118.175C74.1048 119.49 73.0227 120.839 71.9118 122.222C70.4316 120.922 68.9735 119.64 67.5375 118.375C63.3086 114.653 59.3133 111.135 55.234 107.622L55.0289 107.446C53.4303 105.912 51.5976 104.641 49.5993 103.681C48.222 103.11 45.2568 103.783 44.6163 105.101C44.0315 106.307 44.422 107.855 44.7651 109.222C44.8468 109.529 44.9184 109.831 44.9805 110.118C45.067 110.379 45.2067 110.619 45.3906 110.824C45.5744 111.027 45.7986 111.192 46.049 111.305C46.1955 111.39 46.3344 111.486 46.4647 111.592C51.704 116.711 56.9377 121.836 62.2366 127.026L65.3653 130.09L61.6256 134.732C57.775 139.512 53.7945 144.454 49.8442 149.283C48.7961 150.562 47.2148 152.495 48.8542 154.74C49.197 155.24 49.6569 155.649 50.1939 155.932C50.731 156.214 51.3289 156.362 51.9362 156.362C52.9957 156.33 54.0208 155.98 54.877 155.356C56.6483 154.114 58.2323 152.627 59.581 150.937C62.7553 147.053 65.8042 143.187 69.0316 139.092C70.0946 137.745 71.1666 136.388 72.2476 135.019C72.4545 135.169 72.6578 135.318 72.8582 135.465C73.7477 136.116 74.5886 136.725 75.4994 137.266L77.4523 138.425C82.4507 141.396 87.6198 144.47 92.8027 147.327C93.7985 147.764 94.8914 147.935 95.973 147.823C96.4263 147.823 96.8544 147.814 97.2522 147.846C97.3796 147.857 97.5078 147.839 97.6271 147.792C97.7455 147.746 97.8534 147.674 97.94 147.58C98.0265 147.486 98.0903 147.374 98.127 147.252C98.1638 147.129 98.1719 147.001 98.1507 146.874C98.0878 146.435 98.0494 145.993 98.0347 145.549C97.9718 144.361 97.9065 143.132 97.1566 142.291C94.2045 138.944 91.0228 135.805 87.6345 132.897C85.4796 131.131 83.2324 129.481 80.9011 127.954C80.1145 127.419 79.3273 126.883 78.5447 126.337C79.4678 124.996 80.3776 123.677 81.2745 122.381C83.9513 118.509 86.4803 114.85 88.979 111.122C89.1424 110.877 89.3376 110.616 89.5353 110.349C90.6111 108.898 92.4098 106.47 89.9903 104.582C89.6848 104.314 89.3278 104.113 88.9406 103.99C88.5543 103.867 88.1458 103.826 87.7423 103.867Z" fill="#111827"/>
<path d="M39.9238 56.4498C40.1566 56.6127 40.3848 56.7757 40.5955 56.9386C41.2471 57.3199 42.0129 57.4592 42.7577 57.3319C42.8957 57.3254 43.0319 57.3192 43.1618 57.3176C46.0659 57.2747 48.9701 57.2256 51.8744 57.1708C53.9922 57.1323 56.1105 57.0952 58.229 57.0599C59.2288 57.0444 60.2278 57.0486 61.2383 57.0527H61.9734C62.1875 58.2346 62.382 59.3952 62.5821 60.5389C63.1367 63.7841 63.6612 66.8493 64.4527 69.9218C65.0163 72.1138 65.9359 75.6922 69.1732 75.6914C69.4028 75.6908 69.632 75.6739 69.8592 75.6409C73.8324 75.0764 73.5743 70.5419 73.4648 68.6057C73.3015 65.688 72.9101 62.7791 72.4976 59.6992C72.3498 58.602 72.1995 57.4788 72.0541 56.3189L72.4765 56.2544C73.3261 56.1241 74.1382 55.9993 74.9534 55.904C76.1084 55.7672 77.2659 55.6444 78.4242 55.523C80.7041 55.2787 83.0625 55.0343 85.3734 54.6726C86.8944 54.4348 90.4559 53.8775 90.2803 50.08C90.1096 46.3468 86.8356 46.2735 84.8784 46.2287C83.6531 46.2051 82.4197 46.2286 81.2258 46.2514C80.4825 46.266 79.7391 46.2816 78.995 46.284C76.7895 46.2922 74.592 46.29 72.2624 46.2892H69.8592C69.7361 45.3703 69.6146 44.4498 69.4943 43.5277C69.1324 40.7672 68.759 37.9138 68.3236 35.1085C68.2681 34.7501 68.2331 34.3663 68.1964 33.9753C68.0109 32.0032 67.7305 29.0221 64.2409 29.0139H64.2277C63.7107 28.9805 63.1923 29.0513 62.7033 29.2224C62.2143 29.3934 61.7647 29.6608 61.3819 30.0091C60.2685 31.1299 60.2883 32.8406 60.3054 34.35C60.3103 34.7646 60.3151 35.1646 60.293 35.5336C60.1141 38.466 60.1501 41.3676 60.1877 44.4393C60.2008 45.4819 60.2139 46.54 60.218 47.616C60.0653 47.6331 59.9098 47.6494 59.7522 47.6681C58.8062 47.7716 57.7757 47.8847 56.744 47.9613C53.4363 48.2024 50.1279 48.4358 46.8197 48.6617L41.3059 49.0463C40.6126 49.0444 39.9269 49.1867 39.292 49.4643C38.6571 49.7419 38.0872 50.1486 37.6188 50.6583C37.345 51.0241 37.1539 51.4448 37.0589 51.8913C36.9638 52.3378 36.9668 52.7996 37.068 53.2448C37.3155 54.5864 38.6985 55.5758 39.9238 56.4498Z" fill="#111827"/>
<path d="M123.947 54.2853C124.209 54.3 124.519 54.3171 124.836 54.3171C124.988 54.3171 125.144 54.313 125.3 54.3032C128.124 54.124 130.949 53.9504 133.775 53.7826C141.666 53.3036 149.826 52.81 157.843 52.1535C160.123 51.8575 162.352 51.2574 164.472 50.3688C164.985 50.1799 165.496 49.9915 166.006 49.8131C166.917 49.4946 168.201 48.0832 167.945 47.0747C167.789 46.4904 167.491 45.9529 167.078 45.51C166.665 45.0673 166.149 44.7323 165.577 44.5349C163.519 44.1341 161.475 43.9142 159.673 43.7203C159.082 43.6559 158.529 43.5964 158.016 43.5345C157.958 43.5276 157.899 43.5276 157.841 43.5345C156.207 43.6762 154.659 43.8061 153.163 43.9307C150.032 44.1922 147.074 44.4396 144.153 44.7337C136.59 45.4969 129.074 46.3244 123.372 46.959C121.959 47.117 118.65 47.4853 119.015 50.961C119.335 54.0311 122.11 54.1835 123.947 54.2853Z" fill="#111827"/>
<path d="M165.933 125.1C164.101 124.59 162.188 124.436 160.297 124.646C146.693 125.949 135.329 127.125 124.536 128.345C123.554 128.567 122.663 129.085 121.987 129.829C121.708 130.086 121.415 130.329 121.111 130.555C121.005 130.629 120.919 130.728 120.857 130.841C120.796 130.954 120.762 131.082 120.758 131.21C120.754 131.339 120.779 131.467 120.832 131.584C120.886 131.701 120.965 131.806 121.066 131.887C121.357 132.136 121.636 132.4 121.899 132.679C122.527 133.503 123.422 134.086 124.431 134.326C126.66 134.506 128.896 134.554 131.129 134.471C131.757 134.46 132.385 134.447 133.013 134.442C133.056 134.517 133.112 134.584 133.176 134.641C133.329 134.773 133.524 134.846 133.727 134.846C133.752 134.847 133.776 134.847 133.8 134.846L140.611 134.253C147.784 133.63 154.955 132.997 162.125 132.354C163.484 132.292 164.822 131.988 166.074 131.457C166.954 131.025 168.817 129.648 168.627 128.372C168.478 127.65 168.154 126.975 167.685 126.405C167.216 125.835 166.615 125.387 165.933 125.1Z" fill="#111827"/>
<path d="M126.849 119.872C127.507 120.041 128.185 120.12 128.864 120.108C129.344 120.108 129.825 120.079 130.298 120.053C130.625 120.034 130.961 120.016 131.288 120.008C131.413 120.065 131.55 120.091 131.687 120.082C133.439 119.981 135.191 119.883 136.943 119.788C140.957 119.567 145.108 119.337 149.188 119.055C154.266 118.701 159.235 118.33 164.19 117.692C165.191 117.434 166.08 116.86 166.724 116.054C166.992 115.778 167.276 115.515 167.572 115.268C167.667 115.193 167.744 115.098 167.799 114.991C167.853 114.882 167.883 114.764 167.888 114.644C167.892 114.523 167.87 114.403 167.824 114.291C167.777 114.179 167.708 114.079 167.619 113.998C167.326 113.727 167.042 113.44 166.759 113.152C166.056 112.369 165.243 111.691 164.346 111.139C163.472 110.781 162.509 110.698 161.585 110.903C161.384 110.927 161.186 110.95 160.996 110.964L158.878 111.132C152.892 111.608 146.706 112.1 140.62 112.651C136.844 112.993 131.874 113.476 126.913 114.174C126.081 114.387 125.334 114.852 124.778 115.505C124.562 115.719 124.334 115.922 124.097 116.113C124.002 116.186 123.923 116.278 123.866 116.384C123.809 116.489 123.776 116.605 123.768 116.725C123.761 116.845 123.779 116.964 123.821 117.076C123.864 117.188 123.93 117.289 124.016 117.374C124.253 117.616 124.477 117.868 124.689 118.133C125.214 118.919 125.968 119.526 126.849 119.872Z" fill="#111827"/>
<path d="M25.6016 181.261C31.3839 182.46 37.2522 183.201 43.1517 183.476C54.1319 183.924 65.2999 184.172 76.1012 184.412C80.4926 184.51 84.8841 184.613 89.2747 184.719H89.2967C89.4593 184.719 89.6194 184.672 89.7558 184.583H93.1752C96.0767 184.583 98.9798 184.583 101.885 184.583L106.514 184.59C124.691 184.626 143.49 184.662 161.843 181.794C168.244 180.793 175.724 179.396 182.653 176.619C196.558 171.045 204.062 160.771 204.953 146.078C205.525 136.629 205.093 127.114 204.672 117.914C204.591 116.148 204.512 114.381 204.436 112.614C203.712 95.3042 203.009 80.8524 202.223 67.1311C201.692 57.8264 200.933 45.5817 199.777 33.3837C198.092 15.5863 183.735 2.70474 164.864 2.05879C150.896 1.57901 136.683 1.37883 122.933 1.18496C119.018 1.1312 115.035 1.16391 111.184 1.19649C104.862 1.24944 98.3271 1.30384 91.9327 0.966608C77.4106 0.20336 62.0147 0.842159 42.0229 3.04637C29.0186 4.47999 19.2325 8.29212 11.2216 15.0448C4.61893 20.6091 1.40053 27.0642 1.38419 34.7781C1.37848 37.2609 1.32854 39.778 1.23542 42.2591C1.15374 44.4446 1.00271 46.6767 0.857308 48.8361C0.447688 53.4568 0.338226 58.0993 0.530245 62.7341C0.652774 64.6663 0.777993 66.5979 0.905968 68.5296C1.89845 83.6698 2.92468 99.3248 1.88237 114.771C1.45352 121.135 1.57022 127.624 1.68294 133.901L1.70847 135.31C1.89798 146.086 3.4786 155.561 6.54181 164.274C9.84272 173.673 16.2559 179.389 25.6016 181.261ZM24.5753 17.2897L24.7755 17.1811C30.3988 14.1021 36.6289 13.0271 42.5274 12.1987C55.954 10.4372 69.4882 9.62059 83.0298 9.75499C88.6718 9.75499 94.2347 9.84859 99.6896 9.96263C109.594 10.1703 119.665 10.3056 129.404 10.4351C137.937 10.5499 146.761 10.6679 155.438 10.8349C159.45 10.8828 163.454 11.2245 167.416 11.8566C181.66 14.2229 189.537 23.4581 190.197 38.5634C190.738 50.9724 191.237 63.5928 191.721 75.7982C192.082 84.9437 192.45 94.0896 192.825 103.236C192.963 106.544 193.152 109.904 193.336 113.153C193.623 118.237 193.92 123.498 194.025 128.66C194.15 134.787 193.809 141.049 193.453 146.938C192.93 155.524 187.919 161.623 178.564 165.065C172.834 167.072 166.911 168.483 160.889 169.274C140.61 172.288 119.797 172.156 99.67 172.025L97.0112 172.008C95.9664 172.003 94.9224 172.003 93.881 172.008H92.3935C92.2619 172.008 92.1329 172.039 92.0152 172.099C91.8984 172.157 91.7971 172.243 91.7187 172.348C87.3077 172.235 82.8967 172.126 78.4855 172.022C65.6078 171.707 52.2916 171.38 39.2006 170.952C35.8237 170.747 32.4677 170.281 29.163 169.56L28.5722 169.446C23.038 168.392 19.3351 164.983 17.5666 159.313C14.8823 150.453 13.5396 141.243 13.5828 131.987C13.5534 127.756 13.6142 123.447 13.6722 119.28C13.7498 113.722 13.8296 107.975 13.6997 102.319C13.4718 92.4817 12.9719 81.8736 12.1298 68.9452C11.464 58.7509 11.0588 45.3115 13.8696 31.6921C13.9342 31.5056 13.9621 31.308 13.9514 31.1109C13.2946 23.4589 18.7756 20.46 24.5753 17.2873V17.2897Z" fill="#111827"/>
</g>
<defs>
<clipPath id="clip0_6305_12330">
<rect width="205.031" height="184.906" fill="white" transform="translate(17.9971 15.0938)"/>
</clipPath>
<clipPath id="clip1_6305_12330">
<rect width="205.031" height="184.906" fill="white" transform="translate(0.387207)"/>
</clipPath>
</defs>
</svg>
