<svg width="209" height="214" viewBox="0 0 209 214" fill="none" xmlns="http://www.w3.org/2000/svg">
<path d="M207.458 53.6822C207.2 47.4558 206.584 41.1517 205.988 35.0557C205.693 32.0453 205.389 28.9317 205.132 25.8709C204.492 18.2373 200.954 14.378 194.315 14.0732H194.277L185.157 14.0771C184.428 14.1491 183.701 14.2311 182.973 14.3127C181.446 14.4823 179.867 14.6587 178.32 14.7451C173.597 15.0065 168.873 15.2577 164.149 15.4982C153.616 16.0454 142.725 16.6118 132.022 17.3662C129.552 17.5398 124.973 18.1948 122.072 20.6252L117.952 24.0717C106.892 33.3141 95.4565 42.8718 85.0482 53.1494C68.8155 69.1814 52.6563 85.8268 37.0291 101.924C30.4243 108.728 23.811 115.523 17.1891 122.309C17.0091 122.493 16.8363 122.693 16.6643 122.894C16.3869 123.269 16.0431 123.591 15.6499 123.843C11.4675 125.901 9.45952 129.668 7.51712 133.311L7.08353 134.121C6.01984 135.924 5.54315 138.012 5.71946 140.097C5.89577 142.182 6.71634 144.16 8.06751 145.759C23.0963 165.151 38.0771 183.874 56.0819 199.777C61.5563 204.611 67.9483 208.427 73.4795 211.523C75.2082 212.604 77.1862 213.221 79.2226 213.315C82.0387 213.315 84.3427 211.745 86.9645 209.197C89.1933 207.028 91.4125 204.846 93.6205 202.653C98.5245 197.808 103.596 192.8 108.754 188.07C120.914 176.917 133.334 165.633 145.344 154.721C156.336 144.733 167.701 134.406 178.841 124.205C185.314 118.279 191.73 112.081 197.935 106.087C199.698 104.384 201.462 102.683 203.228 100.981C206.541 97.7957 208.117 94.2773 208.045 90.2244C207.965 85.9348 207.936 81.5683 207.904 77.3443C207.846 69.5883 207.784 61.5638 207.458 53.6822Z" fill="#FC787D"/>
<path d="M202.583 40.277C202.325 34.0506 201.709 27.7464 201.113 21.6504C200.818 18.64 200.514 15.5264 200.257 12.4656C199.617 4.83203 196.079 0.97277 189.44 0.667969H189.402L180.282 0.671874C179.553 0.743874 178.826 0.825818 178.098 0.907418C176.571 1.07702 174.992 1.25344 173.445 1.33984C168.722 1.60118 163.998 1.85243 159.274 2.09297C148.741 2.64017 137.85 3.20654 127.147 3.96094C124.677 4.13454 120.098 4.78952 117.197 7.21992L113.077 10.6664C102.017 19.9088 90.5815 29.4666 80.1732 39.7442C63.9404 55.7762 47.7813 72.4215 32.1541 88.5184C25.5493 95.3224 18.936 102.118 12.3141 108.904C12.1341 109.088 11.9613 109.288 11.7893 109.489C11.5119 109.864 11.1681 110.186 10.7749 110.438C6.59253 112.496 4.58452 116.262 2.64212 119.906L2.20853 120.716C1.14484 122.518 0.66815 124.606 0.844461 126.692C1.02077 128.777 1.84134 130.755 3.19251 132.354C18.2213 151.746 33.2021 170.469 51.2069 186.372C56.6813 191.206 63.0733 195.022 68.6045 198.118C70.3332 199.198 72.3112 199.816 74.3476 199.91C77.1637 199.91 79.4677 198.34 82.0895 195.792C84.3183 193.622 86.5375 191.441 88.7455 189.248C93.6495 184.403 98.7207 179.394 103.879 174.665C116.039 163.512 128.459 152.228 140.469 141.316C151.461 131.328 162.826 121.001 173.966 110.8C180.439 104.874 186.855 98.676 193.06 92.6816C194.823 90.9792 196.587 89.2776 198.353 87.576C201.666 84.3904 203.242 80.872 203.17 76.8191C203.09 72.5295 203.061 68.163 203.029 63.939C202.971 56.183 202.909 48.1586 202.583 40.277ZM192.343 72.5266C192.413 73.912 192.165 75.2949 191.62 76.5703C191.074 77.8457 190.245 78.9797 189.195 79.8863C164.165 103.006 145.024 120.734 127.13 137.377C116.315 147.435 105.354 157.697 94.7543 167.625C89.0471 172.967 83.3407 178.307 77.6341 183.646C76.7869 184.437 75.9173 185.205 74.8549 186.143C74.4357 186.513 73.9861 186.91 73.4949 187.343C72.2413 186.47 70.9501 185.619 69.6957 184.792C66.525 182.813 63.5086 180.597 60.6725 178.162C42.5405 161.728 26.9437 142.819 14.0789 126.491C12.7493 124.803 12.5829 123.357 13.5397 121.8L13.8997 121.214C14.9526 119.328 16.2177 117.569 17.6701 115.97C22.2429 111.366 26.8141 106.758 31.3837 102.149C52.0069 81.3544 73.3325 59.8513 94.5607 38.9641C99.3855 34.2169 104.749 29.8303 109.936 25.5887C113.296 22.8439 116.762 20.0055 120.068 17.0879C123.645 13.9271 127.851 13.7074 132.304 13.4754C132.837 13.4474 133.368 13.4191 133.897 13.3863C147.204 12.5535 160.753 11.9463 173.853 11.3527C177.891 11.1714 181.928 10.9877 185.965 10.8015C186.097 10.7951 186.23 10.793 186.365 10.793C186.962 10.793 187.601 10.8487 188.427 10.9207C188.799 10.9535 189.204 10.9898 189.65 11.0242C189.911 14.6915 190.179 18.3292 190.455 21.9383C191.146 31.1479 191.8 39.8463 192.236 48.7383C192.476 53.5543 192.419 58.4767 192.367 63.2375C192.337 66.2815 192.301 69.4282 192.343 72.5266Z" fill="#111827"/>
<path d="M151.532 28.8799H151.212C146.257 28.942 141.526 30.9472 138.036 34.4639C133.931 38.4648 131.581 43.9317 131.504 49.6639C131.409 61.0943 140.872 70.2428 153.046 70.4908C153.234 70.4951 153.42 70.4972 153.606 70.4967C159.531 70.6318 165.274 68.4476 169.612 64.4096C171.568 62.4859 173.12 60.1916 174.18 57.6612C175.239 55.1306 175.784 52.4142 175.781 49.6709C175.941 37.6885 165.967 29.1391 151.532 28.8799ZM142.896 43.7518C143.607 41.9782 144.236 40.586 145.332 40.1564C145.592 40.0561 145.87 40.0068 146.149 40.0104C146.91 40.0512 147.652 40.2566 148.326 40.6127C148.452 40.672 148.591 40.6983 148.73 40.6892C148.869 40.6802 149.003 40.6359 149.12 40.5608C149.238 40.4856 149.334 40.382 149.4 40.2596C149.467 40.1371 149.5 40 149.5 39.8608V39.8037C150.2 40.0277 150.905 40.244 151.61 40.4592C153.978 41.1169 156.292 41.9565 158.532 42.9709C162.789 45.0445 163.051 48.8588 162.52 51.6908C161.825 55.4084 159.682 57.4469 155.776 58.1037C150.41 59.0077 146.642 57.8678 143.917 54.5166C141.512 51.5638 141.18 48.0414 142.896 43.7494V43.7518Z" fill="#111827"/>
</svg>
