<svg width="288" height="217" viewBox="0 0 288 217" fill="none" xmlns="http://www.w3.org/2000/svg">
<path d="M156.37 216.24C126.84 215.629 103.766 215.44 80.7183 214.565C67.4936 214.064 54.2815 212.711 41.1264 211.202C36.1992 210.448 31.3907 209.058 26.8208 207.067C19.8175 204.3 15.9587 198.752 14.898 191.337C14.4761 188.68 14.2707 185.994 14.2835 183.304C14.6798 164.283 15.1359 145.262 15.6513 126.242C16.0827 109.913 16.5594 93.5866 17.0815 77.2637C17.386 68.0693 17.6264 58.8616 18.3489 49.6964C19.3275 37.2829 25.1556 28.2536 37.6152 24.5277C41.0591 23.3321 44.6147 22.4875 48.2284 22.0065C62.1902 20.7953 76.167 19.3187 90.1613 19.0063C126.288 18.1996 162.422 17.7215 198.562 17.5717C216.829 17.3004 235.089 18.3956 253.193 20.8481C258.886 21.6913 264.521 22.8852 270.067 24.4232C273.46 25.2376 276.56 26.9804 279.018 29.4563C281.478 31.9323 283.199 35.0437 283.99 38.4424C285.088 42.1158 285.767 45.9016 286.013 49.7277C286.606 70.0895 287.186 90.458 287.286 110.827C287.398 133.902 286.308 156.948 281.542 179.606C279.969 187.067 277.203 194.284 274.843 201.568C273.344 206.196 269.588 208.461 265.277 210.006C256.862 213.02 248.086 214.089 239.248 214.419C209.478 215.532 179.713 217.051 156.37 216.24Z" fill="#1BB6F9"/>
<path d="M142.675 199.121C113.144 198.51 90.0699 198.321 67.0228 197.446C53.798 196.944 40.5859 195.592 27.4308 194.083C22.5037 193.329 17.6951 191.939 13.1252 189.948C6.12191 187.18 2.26311 181.633 1.20244 174.218C0.780513 171.561 0.57511 168.875 0.587971 166.185C0.984226 147.164 1.44035 128.143 1.95571 109.123C2.38717 92.7938 2.86389 76.4675 3.38599 60.1446C3.69048 50.9502 3.93085 41.7425 4.65333 32.5773C5.63198 20.1638 11.4601 11.1344 23.9196 7.40859C27.3635 6.213 30.9192 5.36838 34.5329 4.88737C48.4947 3.67613 62.4714 2.19954 76.4658 1.88718C112.593 1.08044 148.726 0.602323 184.867 0.452511C203.133 0.181228 221.394 1.27644 239.497 3.72893C245.19 4.57217 250.825 5.76608 256.371 7.30409C259.764 8.11849 262.864 9.86129 265.323 12.3372C267.782 14.8131 269.504 17.9246 270.295 21.3232C271.393 24.9966 272.071 28.7825 272.317 32.6085C272.91 52.9703 273.49 73.3389 273.59 93.7074C273.703 116.783 272.613 139.829 267.846 162.487C266.273 169.948 263.507 177.165 261.148 184.449C259.649 189.077 255.893 191.342 251.581 192.887C243.167 195.901 234.39 196.97 225.552 197.3C195.782 198.413 166.017 199.932 142.675 199.121ZM256.803 125.643C255.987 125.48 255.161 125.374 254.331 125.321C240.704 126.041 227.081 127.256 213.45 127.387C199.63 127.52 185.775 127.035 171.999 125.983C160.332 125.092 155.003 119.691 152.187 108.391C149.958 99.4379 150.326 90.3974 151.797 81.4805C153.693 69.9839 158.487 65.3535 170.163 63.1355C184.311 60.3203 198.705 58.9392 213.13 59.013C225.819 59.1827 238.508 59.3861 251.198 59.5276C253.214 59.5501 255.233 59.3199 257.977 59.1648C257.368 48.7547 256.913 38.9952 256.179 29.2581C255.858 25.021 253.608 22.2198 249.024 21.5861C240.094 20.3501 231.219 18.1423 222.262 17.7659C199.222 16.794 176.148 16.2054 153.087 16.2031C126.362 16.2031 99.6363 16.9153 72.915 17.4759C64.8622 17.6445 56.8061 18.167 48.7792 18.8479C42.8567 19.3501 36.9611 20.2627 31.0847 21.1896C22.5453 22.538 18.1532 28.4412 16.4341 36.1749C15.1353 42.1846 14.4728 48.314 14.4568 54.4625C14.1995 91.5681 14.1949 128.675 14.1129 165.782C14.1129 167.13 14.1129 168.478 14.2252 169.816C14.5904 174.014 16.378 177.133 20.7589 178.258C23.1713 178.877 25.5274 179.796 27.9723 180.188C43.5712 182.696 59.3069 183.344 75.0788 183.682C126.026 184.77 176.971 186.178 227.888 182.588C234.417 182.129 240.825 181.384 246.564 178.746C253.39 161.516 255.842 143.942 256.803 125.643ZM257.53 71.6481C239.758 72.1177 222.473 72.2267 205.225 73.1582C194.326 73.7481 183.461 75.3615 172.641 76.9187C167.154 77.7053 165.816 79.1064 165.499 84.3041C165.045 91.1943 165.039 98.1064 165.479 104.997C165.903 111.137 167.445 112.267 173.74 113.364C176.007 113.758 178.297 114.053 180.588 114.28C199.802 116.191 218.997 114.762 238.195 114.056C244.652 113.815 251.094 113.157 257.351 112.707C259.168 104.984 259.185 78.3908 257.527 71.6481H257.53Z" fill="#111827"/>
<path d="M191.739 81.968C199.124 80.5073 203.761 87.3073 203.729 93.3669C203.692 100.233 198.709 105.241 191.706 105.381C184.332 105.527 177.865 99.8985 178.036 93.4827C178.213 86.74 183.901 81.9635 191.739 81.968Z" fill="#111827"/>
</svg>
