<svg width="191" height="200" viewBox="0 0 191 200" fill="none" xmlns="http://www.w3.org/2000/svg">
<g clip-path="url(#clip0_6305_10542)">
<path d="M183.679 83.7961C182.733 83.1602 181.841 82.4508 181.008 81.6742C178.277 79.2101 175.549 76.7397 172.823 74.264C166.823 68.8124 160.613 63.1827 154.449 57.7087C153.666 57.051 153.037 56.2308 152.607 55.3059C152.177 54.3809 151.956 53.3738 151.958 52.3545C151.843 48.4272 151.4 44.5163 150.633 40.6623C149.84 37.0726 148.426 35.9628 144.319 35.7171C143.062 35.6352 141.77 35.6281 140.518 35.6209C139.545 35.6209 138.573 35.6126 137.601 35.5756C136.957 35.5393 136.317 35.4596 135.685 35.3371C135.424 35.2929 135.175 35.2481 134.937 35.2104C134.879 35.2047 134.823 35.1849 134.775 35.1523C134.726 35.1199 134.687 35.0757 134.66 35.0243C134.631 34.9733 134.615 34.9167 134.613 34.8587C134.61 34.8006 134.621 34.7426 134.645 34.6895C135.057 33.7887 135.483 32.9245 135.902 32.0751C136.808 30.3666 137.577 28.5887 138.199 26.7583C139.448 22.707 137.72 18.983 133.685 17.0464C130.836 15.6432 127.588 15.2623 124.49 15.9671C119.575 17.01 115.302 19.3734 110.402 22.5804C110.341 22.6205 110.27 22.642 110.196 22.642C110.123 22.642 110.052 22.6205 109.991 22.5804C104.85 19.2292 99.8084 19.0876 95.0052 22.1706C94.9389 22.2145 94.8595 22.2363 94.7802 22.2322C94.7008 22.2282 94.6244 22.1984 94.5632 22.148C93.7856 21.5073 93.0342 20.8677 92.3061 20.2342C90.7793 18.8753 89.1834 17.5952 87.5255 16.3988C84.0391 13.9709 80.904 12.7949 77.8365 12.7949C76.961 12.7964 76.0882 12.8909 75.233 13.0773C70.8266 14.0311 67.1155 17.3533 65.3128 21.9548C63.6818 26.1105 63.9657 30.37 66.0757 33.3639C66.322 33.7476 66.5251 34.1568 66.6816 34.5847C66.7864 34.8232 66.9 35.0845 67.0332 35.3824C67.0567 35.4357 67.0674 35.4934 67.0648 35.5515C67.0621 35.6097 67.0462 35.6668 67.018 35.7179C66.9899 35.7689 66.9504 35.8125 66.9026 35.846C66.8547 35.8794 66.7997 35.9014 66.742 35.9104C65.47 36.0821 64.2278 36.2388 63.0083 36.3874C60.3522 36.7222 57.8462 37.0352 55.3547 37.5121C50.1627 38.5173 49.4964 39.3141 49.4666 44.6244C49.444 48.1169 49.4666 51.6696 49.4891 55.1028C49.5044 56.5696 49.5118 58.036 49.5191 59.5029C49.5263 61.1191 49.4142 62.5642 47.9631 63.7926C41.2822 69.4674 34.6755 75.2543 29.6633 79.6557L29.5359 79.7668C25.6304 83.2006 21.5998 86.745 17.8049 90.4093C16.7427 91.437 15.5479 93.0604 15.3884 94.5353L15.3156 95.168C14.5751 101.848 13.8041 108.759 13.7218 115.552C13.483 134.83 13.4452 154.91 13.6097 176.938C13.6323 180.461 14.7018 184.117 15.6374 187.349C17.3804 193.329 21.7497 196.978 28.2742 197.902C33.5406 198.716 38.8522 199.209 44.1792 199.377C53.7259 199.533 63.4444 199.511 72.8338 199.488C76.3651 199.473 79.9037 199.488 83.4276 199.466L84.6544 199.473C86.6977 199.473 88.8149 199.481 90.8871 199.384C93.9844 199.234 97.089 199.056 100.186 198.876C105.685 198.556 111.364 198.228 116.968 198.087C122.414 197.946 127.958 197.96 133.322 197.968C137.273 197.976 141.365 197.983 145.382 197.931C147.074 197.908 148.772 197.894 150.462 197.878C157.121 197.826 163.997 197.767 170.723 197.216C180.321 196.426 184.616 192.815 186.568 183.9C187.662 178.966 188.322 173.946 188.543 168.898C188.94 159.097 189.098 149.118 189.254 139.466C189.292 137.142 189.329 134.817 189.366 132.488C189.419 129.599 189.427 126.657 189.434 123.812C189.441 120.438 189.449 116.946 189.523 113.513C189.584 110.914 189.733 108.27 189.868 105.716C190.01 103.042 190.159 100.28 190.212 97.5684C190.337 91.2587 188.206 86.753 183.679 83.7961Z" fill="#FBB130"/>
</g>
<g clip-path="url(#clip1_6305_10542)">
<path d="M171.389 71.5051C170.443 70.8692 169.55 70.1598 168.718 69.3832C165.987 66.9191 163.259 64.4487 160.533 61.973C154.533 56.5214 148.323 50.8917 142.158 45.4177C141.375 44.76 140.747 43.9398 140.317 43.0149C139.886 42.0899 139.665 41.0828 139.667 40.0635C139.553 36.1362 139.109 32.2253 138.343 28.3713C137.55 24.7816 136.135 23.6718 132.028 23.4261C130.771 23.3442 129.48 23.3371 128.227 23.3299C127.255 23.3299 126.283 23.3215 125.31 23.2846C124.666 23.2483 124.026 23.1686 123.394 23.0461C123.133 23.0019 122.885 22.9571 122.647 22.9194C122.588 22.9137 122.532 22.8939 122.484 22.8613C122.436 22.8289 122.396 22.7847 122.369 22.7333C122.341 22.6823 122.325 22.6257 122.323 22.5677C122.32 22.5095 122.331 22.4516 122.355 22.3985C122.766 21.4976 123.193 20.6335 123.611 19.7841C124.518 18.0755 125.286 16.2977 125.908 14.4673C127.158 10.416 125.429 6.69195 121.394 4.75542C118.545 3.35215 115.297 2.97124 112.199 3.67609C107.284 4.71901 103.012 7.08241 98.1115 10.2894C98.0504 10.3295 97.979 10.351 97.9055 10.351C97.8327 10.351 97.7613 10.3295 97.7001 10.2894C92.5598 6.93818 87.5178 6.79654 82.7146 9.87959C82.6484 9.92344 82.569 9.94525 82.4896 9.94119C82.4103 9.93713 82.3338 9.90735 82.2727 9.85698C81.4951 9.2163 80.7437 8.57664 80.0156 7.94321C78.4888 6.58429 76.8928 5.30416 75.235 4.10783C71.7486 1.67992 68.6134 0.503906 65.546 0.503906C64.6705 0.505425 63.7976 0.599927 62.9424 0.786302C58.536 1.74007 54.825 5.06232 53.0222 9.66376C51.3913 13.8195 51.6752 18.0789 53.7852 21.0729C54.0314 21.4566 54.2346 21.8658 54.391 22.2937C54.4959 22.5322 54.6095 22.7935 54.7427 23.0914C54.7661 23.1447 54.7768 23.2024 54.7742 23.2605C54.7716 23.3187 54.7557 23.3758 54.7275 23.4269C54.6994 23.4779 54.6599 23.5215 54.6121 23.555C54.5642 23.5884 54.5092 23.6104 54.4515 23.6193C53.1795 23.7911 51.9373 23.9478 50.7177 24.0964C48.0617 24.4312 45.5557 24.7442 43.0642 25.221C37.8722 26.2263 37.2059 27.0231 37.176 32.3333C37.1535 35.8259 37.176 39.3786 37.1986 42.8117C37.2139 44.2786 37.2212 45.745 37.2285 47.2119C37.2358 48.8281 37.1237 50.2732 35.6726 51.5016C28.9917 57.1764 22.385 62.9633 17.3728 67.3646L17.2453 67.4758C13.3399 70.9096 9.30923 74.454 5.51441 78.1183C4.45213 79.146 3.25736 80.7694 3.09791 82.2443L3.02503 82.877C2.28456 89.557 1.51355 96.4682 1.43127 103.26C1.19245 122.539 1.15465 142.619 1.31919 164.647C1.34176 168.17 2.41126 171.826 3.34686 175.058C5.0899 181.038 9.45922 184.687 15.9836 185.611C21.25 186.425 26.5617 186.918 31.8887 187.085C41.4354 187.242 51.1539 187.22 60.5433 187.197C64.0745 187.182 67.6131 187.197 71.1371 187.175L72.3638 187.182C74.4071 187.182 76.5244 187.19 78.5966 187.093C81.6938 186.943 84.7984 186.765 87.8957 186.585C93.395 186.265 99.0733 185.937 104.677 185.796C110.124 185.655 115.668 185.669 121.032 185.677C124.982 185.685 129.074 185.692 133.092 185.64C134.783 185.617 136.481 185.603 138.172 185.587C144.831 185.535 151.706 185.476 158.432 184.925C168.031 184.135 172.326 180.524 174.278 171.609C175.371 166.675 176.032 161.655 176.253 156.607C176.65 146.806 176.807 136.827 176.964 127.175C177.001 124.851 177.039 122.526 177.076 120.197C177.128 117.308 177.136 114.366 177.143 111.521C177.151 108.147 177.159 104.655 177.233 101.222C177.293 98.6228 177.443 95.979 177.577 93.425C177.719 90.7514 177.869 87.9894 177.922 85.2774C178.047 78.9677 175.915 74.462 171.389 71.5051ZM139.981 96.9436C141.388 91.0007 141.283 84.849 141.171 78.9061C141.155 77.8038 141.133 76.7094 141.118 75.615C141.096 72.6356 140.894 69.6048 140.707 66.6711C140.602 65.0918 140.505 63.5203 140.422 61.9418C140.385 61.0996 140.392 60.2666 140.408 59.3875C140.408 58.9853 140.415 58.568 140.415 58.1433C140.415 58.08 140.431 58.0179 140.461 57.9621C140.491 57.9063 140.534 57.8589 140.587 57.8234C140.64 57.7906 140.701 57.7713 140.764 57.7674C140.826 57.7635 140.889 57.7749 140.946 57.8007C144.313 59.3799 157.525 71.4213 164.909 79.6439C164.977 79.7214 165.013 79.8236 165.007 79.9265C165.001 79.9773 164.985 80.0273 164.96 80.0715C164.935 80.1164 164.901 80.1556 164.861 80.1874L141.047 98.3786C140.984 98.4308 140.904 98.4598 140.823 98.4605C140.751 98.4569 140.682 98.4344 140.622 98.3967C140.561 98.3583 140.512 98.3054 140.478 98.2431C140.373 98.0046 140.277 97.8263 140.202 97.6923C140.032 97.4821 139.952 97.2132 139.979 96.9451L139.981 96.9436ZM97.8603 21.6221C102.302 16.4039 107.639 11.5839 116.512 11.5839H116.848C116.909 11.5854 116.968 11.6007 117.021 11.6292C117.074 11.6577 117.12 11.6981 117.155 11.7474C117.188 11.7973 117.209 11.8548 117.215 11.9145C117.222 11.9741 117.214 12.034 117.193 12.0899C115.829 15.5907 113.519 18.648 110.519 20.9228C109.037 22.1222 107.167 22.7405 105.259 22.6618C104.233 22.6424 103.208 22.5634 102.192 22.4239C100.864 22.2291 99.5211 22.1662 98.1814 22.2371C98.1072 22.242 98.0343 22.226 97.9695 22.1904C97.9047 22.1548 97.8523 22.1015 97.8174 22.0368C97.7824 21.9715 97.7679 21.8973 97.7759 21.8238C97.7831 21.7502 97.8123 21.6804 97.8603 21.6235V21.6221ZM94.4631 31.036C98.3015 29.6879 117.985 30.2763 129.566 32.1005C129.654 32.1124 129.734 32.1562 129.792 32.2229C129.85 32.2896 129.882 32.3747 129.881 32.4629V34.3094C129.888 35.7393 129.896 37.1103 129.874 38.488C129.858 39.2251 129.806 39.9769 129.754 40.7734C129.724 41.1532 129.694 41.5554 129.671 41.9801C129.664 42.0743 129.622 42.1624 129.553 42.2271C129.483 42.2919 129.392 42.3289 129.298 42.3304H95.5479C95.4547 42.3309 95.3652 42.2968 95.296 42.2349C95.2268 42.173 95.1831 42.0877 95.1744 41.9957L94.2162 31.4196C94.2104 31.3379 94.2315 31.2571 94.2759 31.1882C94.3204 31.1192 94.3859 31.0664 94.4631 31.0374V31.036ZM95.0696 52.9157C95.0725 52.8438 95.0958 52.7748 95.1365 52.7154C95.178 52.6561 95.2348 52.609 95.3011 52.5802C97.9419 51.5301 123.058 51.1728 129.32 52.0961C129.403 52.1075 129.48 52.1475 129.537 52.2087C129.594 52.2698 129.628 52.3483 129.634 52.4316C130.752 65.863 131.078 79.3489 130.607 92.8176C130.604 92.8923 130.579 92.9633 130.535 93.0234C130.491 93.0829 130.43 93.1285 130.36 93.1532C127.36 94.2178 109.682 95.3499 99.5619 95.3499C97.6157 95.3803 95.6702 95.3028 93.7335 95.1187C93.6403 95.1064 93.5551 95.0593 93.494 94.9875C93.4335 94.9165 93.4015 94.8252 93.4044 94.7317L95.0696 52.9157ZM61.2678 12.1275C62.2922 9.80392 63.6392 9.03714 66.0557 9.40966C67.2099 9.56309 68.3201 9.95032 69.3175 10.5485C74.3234 13.7431 77.7272 17.3104 80.0542 21.7785C80.0833 21.8321 80.0993 21.8921 80.0993 21.9533C80.0993 22.0145 80.0833 22.0752 80.0542 22.1288C80.0236 22.1829 79.9807 22.2288 79.9282 22.2626C79.8765 22.2963 79.8168 22.3165 79.7549 22.322C78.5652 22.4192 77.4127 22.5608 76.298 22.7028C74.4909 22.9641 72.6692 23.1156 70.8436 23.1565C70.3274 23.1565 69.8192 23.142 69.3102 23.097C65.9137 22.8144 62.8987 21.1402 61.4541 18.7181C60.881 17.7198 60.5642 16.5963 60.5317 15.4469C60.4992 14.2974 60.752 13.1578 61.2678 12.1289V12.1275ZM44.92 32.1529C51.8186 30.5816 79.3734 29.5538 85.8745 30.6184C85.9612 30.6329 86.0398 30.6769 86.0973 30.743C86.1548 30.8091 86.1869 30.8934 86.1891 30.9808V41.7345C86.1883 41.816 86.1607 41.8951 86.1112 41.9596C86.0609 42.0242 85.991 42.0707 85.9124 42.0919C84.3557 42.5094 75.3253 42.7176 66.1307 42.7176C56.8381 42.7176 47.3744 42.509 45.3322 42.0763C45.2506 42.0618 45.1765 42.0204 45.1221 41.9582C45.0677 41.8959 45.0362 41.8169 45.0328 41.7345L44.6287 32.5301C44.6236 32.443 44.6504 32.3571 44.7038 32.288C44.7573 32.2189 44.8341 32.1716 44.92 32.1543V32.1529ZM46.3194 56.8105C46.3121 54.7924 46.307 52.7423 46.3041 50.6594C46.3072 50.5578 46.3504 50.4614 46.4243 50.3911C46.502 50.3264 46.5995 50.2892 46.701 50.2864L85.3736 51.9397C85.4712 51.9437 85.5636 51.9855 85.6306 52.0565C85.6976 52.1275 85.734 52.2223 85.7326 52.3198L84.797 94.9476C84.797 94.9991 84.786 95.0498 84.7642 95.0962C84.7423 95.1426 84.7103 95.1832 84.6703 95.2158C84.6018 95.2767 84.5145 95.3107 84.4235 95.3129C84.4082 95.3129 84.4009 95.3129 84.3936 95.305C79.7549 94.9027 75.0486 94.8658 70.492 94.836C62.7568 94.7766 54.7514 94.7165 46.8291 92.8176C46.7591 92.8024 46.6953 92.7662 46.6458 92.7147C46.5964 92.6625 46.5636 92.598 46.5517 92.5277C46.4549 91.9921 46.3274 91.4783 46.208 90.9644C45.9076 89.8991 45.7418 88.8003 45.7144 87.6944C45.7588 84.7903 45.8789 81.8413 45.9984 78.9887C46.1178 76.1361 46.2379 73.1799 46.283 70.2828C46.3566 65.8379 46.3419 61.4511 46.3194 56.812V56.8105ZM14.3206 81.513L36.0846 62.9546C36.1356 62.9117 36.197 62.8828 36.2627 62.8711C36.3285 62.8594 36.3962 62.8653 36.4589 62.8881C36.5202 62.9102 36.5746 62.9475 36.6166 62.9971C36.6586 63.0467 36.6868 63.1066 36.6984 63.1705C36.788 63.6321 36.8775 64.0271 36.9598 64.3772C37.1218 64.9394 37.2099 65.5201 37.2219 66.1048C37.1396 68.674 37.0348 71.2431 36.9372 73.8126C36.7654 78.0944 36.5863 82.5182 36.5114 86.8674C36.4398 89.3033 36.7066 91.7363 37.3042 94.099C37.6787 95.7478 38.4958 97.2639 39.6686 98.4866C40.8412 99.7085 42.3254 100.591 43.9626 101.04C47.1286 102.039 50.3911 102.705 53.6964 103.028C60.9009 103.49 68.2399 103.676 75.3405 103.862L77.5547 103.914L83.2782 104.071C91.1867 104.294 99.3689 104.51 107.406 104.451C111.926 104.421 116.526 104.071 120.978 103.735C123.23 103.564 125.557 103.385 127.853 103.251C128.894 103.192 129.911 103.207 131.213 103.221C131.886 103.229 132.627 103.237 133.48 103.237C133.557 103.238 133.633 103.263 133.695 103.308C133.758 103.353 133.806 103.416 133.832 103.49C133.857 103.561 133.861 103.639 133.84 103.713C133.82 103.786 133.778 103.851 133.719 103.899C118.814 116.008 103.03 127.002 86.4956 136.793C86.4366 136.829 86.3696 136.847 86.3012 136.845C86.2458 136.848 86.1912 136.835 86.1439 136.808C70.9637 129.633 19.9021 90.7028 14.2536 81.9971C14.2037 81.9225 14.1831 81.8326 14.1955 81.7435C14.2078 81.6543 14.2523 81.5724 14.3206 81.5145V81.513ZM11.8451 163.417C11.8118 163.42 11.7784 163.415 11.7476 163.402C11.6759 163.386 11.611 163.347 11.5616 163.293C11.5122 163.238 11.4806 163.17 11.4709 163.097C11.4338 162.807 11.3813 162.517 11.3362 162.24C11.2138 161.635 11.1437 161.019 11.1265 160.401C11.112 157.212 11.1071 154.027 11.112 150.847C11.1193 145.939 11.1192 140.867 11.0595 135.878C10.9546 127.447 10.8127 118.876 10.6708 110.584C10.5805 105.646 10.4982 100.714 10.4239 95.7862C10.4086 94.9672 10.461 94.1403 10.5134 93.3438C10.536 92.9713 10.5586 92.5987 10.5732 92.219C10.576 92.1501 10.5985 92.0827 10.6382 92.0262C10.678 91.9689 10.7332 91.9247 10.7974 91.8986C10.8607 91.8704 10.9308 91.8602 10.9997 91.8697C11.0686 91.8783 11.1335 91.9066 11.187 91.9508L45.4297 120.206C45.5046 120.269 45.5525 120.357 45.5635 120.454C45.5747 120.552 45.5481 120.649 45.4893 120.727L12.1371 163.27C12.1026 163.315 12.0584 163.351 12.0077 163.378C11.9571 163.403 11.9013 163.417 11.8444 163.419L11.8451 163.417ZM162.068 175.772C162.042 175.833 162.001 175.887 161.948 175.927C161.896 175.968 161.834 175.994 161.768 176.003C161.02 176.093 160.339 176.189 159.703 176.286C158.548 176.486 157.38 176.606 156.209 176.643C151.166 176.666 146.116 176.659 141.064 176.651C132.431 176.636 123.505 176.622 114.729 176.763C107.772 176.882 100.694 177.239 93.8558 177.589C90.7586 177.746 87.654 177.902 84.5567 178.036L84.347 178.044C84.1672 178.051 83.9881 178.066 83.8009 178.066C79.9027 178.141 75.9995 178.228 72.0923 178.326C63.7055 178.528 55.0491 178.728 46.4897 178.728H44.2233C37.8416 178.699 31.3623 178.193 25.1 177.701C23.4021 177.567 21.7034 177.433 20.0128 177.314C18.7383 177.167 17.4824 176.889 16.2647 176.488C15.6589 176.301 15.0225 176.115 14.3644 175.951C14.3107 175.941 14.2603 175.917 14.2174 175.884C14.1745 175.85 14.1403 175.806 14.1175 175.757C14.0923 175.708 14.0785 175.653 14.0773 175.598C14.076 175.543 14.0873 175.488 14.1103 175.437C16.2217 170.745 47.994 131.67 53.6498 126.829C53.7139 126.776 53.7941 126.744 53.8779 126.74C53.9617 126.736 54.0445 126.759 54.1136 126.807C54.7871 127.298 55.4678 127.805 56.1522 128.311C57.6637 129.435 59.2196 130.59 60.8207 131.67C64.7631 134.321 68.7159 136.958 72.6791 139.579C76.1742 141.903 79.6749 144.217 83.1537 146.557C85.8767 148.381 88.2263 147.346 90.3617 145.961C96.557 141.955 102.752 137.951 108.946 133.948L118.238 127.946C119.024 127.432 119.809 126.918 120.692 126.338L121.956 125.504C122.036 125.454 122.13 125.436 122.222 125.451C122.315 125.466 122.398 125.514 122.458 125.586L162.013 175.4C162.054 175.451 162.081 175.513 162.091 175.579C162.1 175.645 162.092 175.712 162.067 175.774L162.068 175.772ZM168.329 97.9858C168.085 99.5302 167.988 101.093 168.038 102.655C168.256 106.126 168.142 109.671 168.03 113.097L167.97 114.951C167.91 116.917 167.798 118.913 167.686 120.849C167.574 122.8 167.454 124.818 167.395 126.8C167.335 128.901 167.335 131.036 167.328 133.105C167.328 134.937 167.328 136.829 167.283 138.69C167.238 140.664 167.148 142.667 167.064 144.604C166.974 146.674 166.885 148.819 166.84 150.926C166.788 153.659 166.802 156.452 166.818 159.148C166.818 160.355 166.825 161.561 166.825 162.767C166.823 162.848 166.796 162.925 166.748 162.99C166.7 163.054 166.632 163.101 166.555 163.125L165.536 163.422C165.501 163.43 165.466 163.436 165.431 163.438C165.38 163.437 165.328 163.426 165.281 163.406C165.233 163.385 165.19 163.355 165.155 163.318C157.583 155.372 150.655 146.637 143.951 138.184C139.268 132.271 134.428 126.164 129.355 120.311C129.322 120.272 129.296 120.227 129.281 120.178C129.266 120.13 129.261 120.078 129.266 120.028C129.28 119.928 129.333 119.836 129.415 119.775L167.75 90.3955C167.8 90.3578 167.857 90.3332 167.919 90.3245C167.98 90.3151 168.044 90.3223 168.102 90.3433C168.161 90.3643 168.214 90.3999 168.256 90.447C168.298 90.4934 168.327 90.5506 168.341 90.6115C168.772 93.0517 168.767 95.5477 168.328 97.9858H168.329Z" fill="#111827"/>
</g>
<defs>
<clipPath id="clip0_6305_10542">
<rect width="177.654" height="187.71" fill="white" transform="translate(12.9858 12.291)"/>
</clipPath>
<clipPath id="clip1_6305_10542">
<rect width="177.654" height="187.71" fill="white" transform="translate(0.695312)"/>
</clipPath>
</defs>
</svg>
