<svg width="258" height="216" viewBox="0 0 258 216" fill="none" xmlns="http://www.w3.org/2000/svg">
<path d="M142.8 55.084C143.24 54.0157 143.514 53.6606 143.511 53.3092C143.452 46.4386 144.269 45.4399 151.23 45.4757C154.805 45.4022 158.258 44.1649 161.065 41.9511C164.445 39.5661 166.017 36.4399 165.279 32.2526C164.94 30.9183 164.828 29.5362 164.947 28.1646C165.833 23.034 171.794 20.2305 175.794 23.5923C180.427 27.4859 185.39 26.55 190.414 26.128C191.793 25.9985 193.119 25.5283 194.27 24.7597C195.423 23.991 196.366 22.948 197.016 21.7244C201.664 14.1811 207.047 13.9025 212.085 21.0978C215.647 26.1846 221.111 26.2666 226.19 27.5048C228.092 27.9672 230.141 27.8516 232.038 28.3256C236.645 29.4816 237.872 31.1056 238.117 35.7819C238.47 42.5206 239.558 43.8341 246.031 45.285C247.959 45.7174 249.929 45.9959 251.823 46.5427C257.429 48.1612 259.489 52.9137 256.835 58.0848C256.273 59.3527 255.47 60.5003 254.473 61.4631C250.252 64.9868 250.562 69.2088 251.993 73.8701C252.761 76.0797 253.072 78.4222 252.907 80.7556C252.445 84.5938 250.926 85.6908 247.058 86.2041C243.342 86.6965 243.342 86.6968 241.364 88.4818C242.818 98.6829 244.416 108.588 245.599 118.54C246.853 129.111 247.865 139.719 248.699 150.332C249.348 158.593 249.517 180.893 249.983 189.176C250.484 198.105 246.542 202.154 238.644 206.112C230.947 209.8 222.54 211.77 214.006 211.885C194.065 212.579 174.107 212.819 154.157 213.216C133.018 213.637 111.879 213.984 90.741 214.443C76.9202 214.743 63.1041 215.384 49.2833 215.507C36.8405 215.623 31.3075 211.029 28.3584 198.955C25.8277 188.577 24.0233 166.228 23.9077 155.493C23.688 134.952 23.2346 114.413 23.0982 93.8744C23.0931 87.7531 23.4449 81.637 24.1515 75.5568C25.4405 63.8863 32.4405 58.2861 44.289 57.0885C75.0635 53.9775 105.908 55.4803 136.713 55.0907C138.844 55.0594 140.965 55.084 142.8 55.084Z" fill="#FC787D"/>
<path d="M119.902 39.2314C120.342 38.1632 120.616 37.8081 120.613 37.4566C120.554 30.5861 121.371 29.5874 128.332 29.6232C131.907 29.5497 135.36 28.3123 138.167 26.0986C141.547 23.7136 143.119 20.5874 142.381 16.4001C142.042 15.0657 141.93 13.6837 142.049 12.3121C142.936 7.18149 148.896 4.37793 152.896 7.73978C157.529 11.6334 162.492 10.6974 167.516 10.2755C168.895 10.146 170.221 9.67577 171.373 8.90713C172.525 8.13851 173.468 7.09545 174.118 5.8719C178.766 -1.67146 184.149 -1.95007 189.188 5.24531C192.749 10.332 198.213 10.4141 203.292 11.6522C205.194 12.1146 207.243 11.999 209.14 12.473C213.747 13.6291 214.974 15.253 215.219 19.9293C215.573 26.6681 216.66 27.9816 223.133 29.4325C225.062 29.8648 227.031 30.1433 228.925 30.6901C234.531 32.3086 236.591 37.0611 233.937 42.2322C233.375 43.5002 232.573 44.6477 231.575 45.6106C227.354 49.1343 227.664 53.3563 229.095 58.0175C229.863 60.2271 230.174 62.5697 230.01 64.9031C229.547 68.7412 228.028 69.8382 224.16 70.3515C220.444 70.844 220.444 70.8442 218.466 72.6292C219.921 82.8304 221.518 92.7356 222.701 102.687C223.955 113.258 224.967 123.866 225.801 134.479C226.45 142.74 226.619 165.041 227.085 173.323C227.586 182.252 223.644 186.301 215.746 190.259C208.049 193.947 199.642 195.917 191.108 196.033C171.167 196.726 151.21 196.967 131.259 197.363C110.12 197.784 88.9806 198.131 67.8431 198.59C54.0222 198.891 40.2062 199.531 26.3854 199.655C13.9426 199.77 8.40956 195.176 5.46042 183.102C2.92979 172.724 1.12533 150.375 1.00972 139.641C0.79007 119.1 0.336665 98.5605 0.200249 78.0218C0.195187 71.9006 0.546997 65.7845 1.25358 59.7042C2.5426 48.0337 9.54254 42.4336 21.391 41.2359C52.1656 38.1249 83.0096 39.6277 113.815 39.2381C115.946 39.2069 118.067 39.2314 119.902 39.2314ZM205.084 93.9607C197.889 92.0508 193.87 93.4832 189.427 99.763C184.403 106.868 178.304 106.631 174.008 100.628C173.206 99.4652 172.035 98.6082 170.684 98.1966C169.332 97.7849 167.882 97.843 166.568 98.3608C164.492 99.0827 162.551 100.149 160.828 101.515C158.116 103.942 155.29 105.383 151.695 104.379C147.848 103.305 147.971 99.7229 147.175 96.7414C146.537 94.3541 145.82 91.9874 144.884 88.7284C141.701 90.2799 139.235 91.3333 136.917 92.6477C133.991 94.309 131.174 94.2905 128.65 92.1645C127.459 91.2507 126.607 89.9662 126.227 88.514C125.848 87.0616 125.963 85.5242 126.555 84.1448C127.23 82.2951 127.775 80.3848 128.442 78.5259C129.095 77.0063 129.33 75.3399 129.122 73.6989C128.914 72.0581 128.271 70.5029 127.259 69.1943C123.855 69.8325 120.196 69.9457 117.68 66.8105C115.052 63.5342 116.599 59.8438 117.764 55.9351C87.0235 56.4056 56.7633 54.8948 26.2604 58.0959C24.4444 58.2641 22.7505 59.0835 21.491 60.4025C20.2315 61.7215 19.4915 63.4511 19.4072 65.2729V65.3356C18.9968 83.2546 18.4998 101.174 18.3669 119.101C18.2729 128.873 18.6817 138.643 19.5913 148.373C20.0364 153.026 20.4387 163.01 21.6629 171.041C22.0826 173.708 23.4549 176.133 25.5257 177.866C27.5965 179.599 30.2255 180.523 32.9253 180.466H33.0142C54.3459 180.073 75.6731 179.477 97.0084 179.298C126.862 179.047 156.719 179.217 186.573 178.931C192.442 178.874 198.324 177.706 204.152 176.755C205.83 176.477 207.345 175.581 208.398 174.246C209.452 172.909 209.97 171.229 209.851 169.532C208.25 146.678 206.674 115.245 205.084 93.9607ZM160.238 83.9862C166.807 81.3145 172.955 81.141 179.103 83.7745C179.665 83.9247 180.253 83.9535 180.828 83.8586C181.403 83.7637 181.949 83.5473 182.434 83.2241C187.986 79.2515 194.529 76.8911 201.338 76.4034C202.396 68.4185 206.07 62.3356 211.72 58.8315V43.8026C208.722 41.1541 205.664 39.1353 203.544 36.392C201.314 33.5018 199.978 29.9282 198.237 26.6241C194.53 25.5328 190.492 24.9194 187.023 23.183C182.487 20.9171 178.401 19.6464 173.844 22.8777C172.616 23.5237 171.257 23.8774 169.87 23.9112C165.014 24.5251 160.149 25.037 154.902 25.6312C152.074 33.0416 145.747 37.0627 139.512 40.4292C138.41 45.8153 137.396 50.7724 136.297 56.1389C142.714 60.2742 143.776 67.1571 144.352 74.3594C151.332 75.0484 157.171 77.1273 160.238 83.9862Z" fill="#111827"/>
<path d="M70.7415 103.145C87.1288 103.145 103.518 103.023 119.903 103.231C124.039 103.389 128.143 104.018 132.137 105.108C136.085 106.089 138.011 108.865 137.974 112.286C137.973 114.094 137.32 115.841 136.135 117.205C134.949 118.57 133.311 119.46 131.521 119.712C128.23 120.374 124.885 120.735 121.529 120.791C108.108 120.956 94.6849 120.945 81.264 120.997C75.5253 121.019 69.7818 120.897 64.05 121.089C57.3448 121.314 50.6513 121.938 43.9461 122.13C41.0054 122.292 38.0572 121.998 35.2061 121.26C33.5868 120.747 32.1816 119.716 31.2084 118.324C30.2352 116.931 29.7484 115.257 29.8235 113.56C30.1356 110.439 32.0836 108.127 36.0489 107.346C41.8524 106.196 47.7252 105.266 53.6061 104.666C59.294 104.087 65.0363 104.057 70.7542 103.786C70.7507 103.571 70.7461 103.354 70.7415 103.145Z" fill="#111827"/>
<path d="M66.0116 91.8522C57.1549 91.3666 48.2972 90.9123 39.4452 90.362C38.0972 90.2788 36.3665 90.1572 35.5329 89.3295C34.1121 87.9179 32.3875 85.9159 32.4199 84.191C32.4523 82.4662 34.2117 80.4592 35.7342 79.2037C36.7909 78.3332 38.7181 78.341 40.2696 78.2785C51.5043 77.8161 62.7424 77.4695 73.9771 77.0163C76.532 76.9146 79.0787 76.5828 81.6279 76.3435C82.4051 76.2134 83.1883 76.122 83.9747 76.0703C89.0614 76.1027 93.3387 79.1813 93.7098 83.0299C94.0566 86.5998 91.4615 89.3132 86.1031 90.6832C84.1745 91.0619 82.2237 91.3176 80.2627 91.4486C80.0652 91.4627 79.8669 91.4645 79.6694 91.4543H66.0348L66.0116 91.8522Z" fill="#111827"/>
<path d="M163.179 147.713C157.702 147.218 152.212 146.828 146.756 146.158C145.192 146.032 143.729 145.337 142.644 144.204C141.603 142.773 140.687 140.497 141.111 138.972C141.529 137.469 143.506 135.983 145.134 135.35C147.084 134.59 149.384 134.674 151.54 134.513C159.584 133.911 167.628 133.293 175.681 132.839C177.449 132.849 179.207 133.098 180.91 133.575C182.194 133.796 183.358 134.468 184.191 135.471C185.023 136.475 185.469 137.742 185.449 139.045C185.616 142.086 184.35 144.581 181.334 145.496C178.514 146.35 175.615 146.915 172.681 147.183C169.55 147.468 166.375 147.249 163.217 147.249L163.179 147.713Z" fill="#111827"/>
<path d="M158.039 62.2055C158.667 61.106 159.416 58.6687 161.032 57.1612C167.662 50.9739 174.485 44.987 181.412 39.1338C183.002 37.9523 184.877 37.2122 186.845 36.9881C188.068 36.7786 189.326 36.9081 190.48 37.3629C191.634 37.8177 192.643 38.5799 193.394 39.5673C194.145 40.5546 194.611 41.7294 194.742 42.9633C194.873 44.197 194.663 45.4428 194.136 46.5658C193.122 48.6983 191.643 50.5763 189.807 52.0599C183.206 57.3859 176.423 62.4895 169.662 67.6155C168.575 68.4686 167.347 69.1237 166.032 69.55C161.851 70.7904 157.951 67.7303 158.039 62.2055Z" fill="#111827"/>
<path d="M171.028 37.6953C171.188 41.5959 167.018 46.0894 163.283 46.0351C159.888 45.9865 155.992 42.0582 155.95 38.642C155.9 34.6605 159.909 29.9336 163.375 29.8862C166.917 29.8388 170.872 33.8779 171.028 37.6953Z" fill="#111827"/>
<path d="M184.464 64.1608C184.185 60.1516 187.945 56.0407 192.07 55.8477C193.955 55.8603 195.767 56.5788 197.149 57.8612C198.53 59.1436 199.382 60.8967 199.535 62.7756C199.477 64.7564 198.742 66.6578 197.453 68.1625C196.163 69.6671 194.396 70.6843 192.448 71.0442C191.468 71.1361 190.479 71.0292 189.542 70.7297C188.604 70.4304 187.736 69.945 186.99 69.3022C186.246 68.6594 185.638 67.8724 185.203 66.9889C184.768 66.1056 184.518 65.1437 184.464 64.1608Z" fill="#111827"/>
</svg>
