<svg width="200" height="200" viewBox="0 0 200 200" fill="none" xmlns="http://www.w3.org/2000/svg">
<path d="M102.43 165.575L103.077 165.772C105.457 166.492 107.704 167.171 109.186 170.147C109.223 170.222 109.276 170.289 109.34 170.342C109.405 170.395 109.48 170.434 109.56 170.457C109.611 170.47 109.663 170.477 109.716 170.477C109.83 170.477 109.942 170.443 110.039 170.38C111.131 169.662 112.16 169.012 113.137 168.394C115.183 167.098 116.951 165.981 118.641 164.679C124.704 160.11 130.236 154.866 135.133 149.044C141.569 141.261 148.224 133.214 154.489 124.789C158.409 119.516 161.752 113.628 164.578 108.526C167.404 103.364 169.086 97.6434 169.509 91.7602C170.275 82.0922 167.998 73.3777 162.741 65.8594C156.889 57.4917 149.107 53.4166 139.628 53.7307C128.933 54.0916 119.528 58.219 111.673 65.9991C111.292 66.3943 110.939 66.8162 110.617 67.2617C110.007 68.0661 109.427 68.8297 108.555 69.1322C99.3915 60.1205 92.3855 56.5953 81.9049 55.6918C71.149 54.7638 62.4413 58.2565 56.0225 66.0674C52.837 69.9283 50.0449 74.1035 47.6887 78.5299C42.6664 88.0249 41.6198 98.1243 44.583 108.55C47.2257 117.855 51.6322 126.553 57.558 134.161C69.4056 149.422 84.5032 159.992 102.43 165.575Z" fill="#FBB130"/>
<path d="M92.7483 153.199L93.3955 153.396C95.775 154.116 98.0224 154.795 99.5037 157.771C99.5412 157.846 99.5938 157.913 99.6584 157.966C99.7231 158.019 99.7981 158.058 99.8784 158.081C99.9292 158.094 99.9811 158.101 100.034 158.101C100.149 158.101 100.261 158.067 100.357 158.004C101.449 157.286 102.478 156.636 103.455 156.018C105.501 154.722 107.269 153.605 108.959 152.303C115.022 147.734 120.554 142.49 125.451 136.668C131.887 128.885 138.542 120.838 144.807 112.413C148.728 107.14 152.071 101.252 154.896 96.1502C157.722 90.9876 159.404 85.2674 159.827 79.3843C160.594 69.7162 158.316 61.0017 153.059 53.4834C147.208 45.1157 139.425 41.0406 129.946 41.3548C119.251 41.7156 109.846 45.8431 101.991 53.6231C101.61 54.0183 101.257 54.4402 100.935 54.8857C100.325 55.6901 99.745 56.4537 98.8728 56.7562C89.7096 47.7445 82.7036 44.2193 72.223 43.3158C61.4671 42.3878 52.7594 45.8805 46.3406 53.6914C43.1551 57.5523 40.363 61.7276 38.0069 66.1539C32.9845 75.6489 31.9379 85.7483 34.9011 96.1736C37.5438 105.479 41.9503 114.177 47.8761 121.785C59.7237 137.046 74.8213 147.616 92.7483 153.199ZM48.3812 67.9521C49.7576 65.3334 51.2909 62.8019 52.9724 60.3715C56.9701 54.4801 62.6044 51.5066 69.7494 51.5066C70.6346 51.5066 71.5428 51.5522 72.4742 51.6436C82.0179 52.5803 89.6738 56.8256 95.2289 64.2612C95.8963 65.1542 96.6231 65.9809 97.2639 66.7095C97.5248 67.0068 97.7701 67.2861 97.9866 67.542C98.0767 67.6487 98.2014 67.7197 98.3382 67.7429C100.915 68.1918 101.956 66.8429 102.729 65.5476C107.19 58.0765 114.134 53.6169 124.582 51.5138C127.056 51.0826 129.58 51.0186 132.073 51.3242C136.031 51.7013 139.426 53.6653 142.165 57.1598C145.286 61.1683 147.137 66.0348 147.473 71.1226C148.025 77.0034 146.955 82.924 144.382 88.2292C142.443 92.341 140.236 96.3185 137.776 100.135C133.207 106.931 128.328 113.688 123.611 120.221L121.971 122.495C118.458 127.366 114.824 132.275 111.311 137.023C110.044 138.736 108.777 140.45 107.511 142.165C106.965 142.905 106.396 143.63 105.795 144.399C105.596 144.652 105.395 144.909 105.19 145.172C103.505 144.473 101.864 143.789 100.255 143.121C96.458 141.544 92.8373 140.039 89.2251 138.512C79.2272 134.355 70.1711 128.188 62.6072 120.386C54.852 112.329 49.477 103.71 46.176 94.0349C43.1661 85.2097 43.8871 76.6777 48.3812 67.9521Z" fill="#111827"/>
</svg>
