<svg width="179" height="160" viewBox="0 0 179 160" fill="none" xmlns="http://www.w3.org/2000/svg">
<path d="M161.435 71.0667C159.908 80.0478 158.414 89.0348 156.838 98.0074C156.281 101.178 155.466 104.304 154.876 107.47C154.028 112.011 150.111 114.159 146.078 113.521C137.813 112.214 129.543 110.921 121.318 109.39C111.789 107.616 102.297 105.629 92.8076 103.648C90.5815 103.123 88.3865 102.472 86.233 101.697C83.595 100.822 81.5261 97.1525 81.9294 94.0926C82.3192 91.1473 82.7359 88.2031 83.228 85.2734C85.5165 71.6412 87.8224 58.0122 90.1456 44.3859C91.5064 36.3805 92.9198 28.3836 94.2455 20.3726C94.6206 18.1013 94.875 15.8012 96.1485 13.8363C96.8502 12.6833 97.7091 11.6386 98.6987 10.7346C99.9004 9.70765 101.434 9.51504 102.993 9.75176C106.207 10.2399 109.414 10.7978 112.642 11.158C124.038 12.4282 135.184 15.0635 146.425 17.1852C148.817 17.6366 150.489 18.775 151.942 20.8208C154.91 24.9986 158.192 28.938 161.318 32.9972C162.507 34.5424 163.572 36.1915 164.788 37.7132C165.91 39.1171 166.16 40.6746 165.898 42.4054C165.436 45.4686 165.024 48.5404 164.515 51.5962C163.433 58.077 162.302 64.5498 161.191 71.0262L161.435 71.0667Z" fill="#FBB130"/>
<path d="M168.944 63.7246C167.439 72.5842 165.968 81.4488 164.412 90.2992C163.844 93.5314 163.021 96.7182 162.41 99.9435C161.55 104.488 157.582 106.585 153.58 105.946C145.496 104.655 137.403 103.401 129.356 101.901C119.649 100.091 109.979 98.079 100.311 96.0673C98.0833 95.5476 95.8886 94.8948 93.7376 94.1121C91.1034 93.224 89.0302 89.5328 89.4832 86.4789C90.6295 78.7579 91.7339 71.0279 93.041 63.3334C95.9171 46.4037 98.9384 29.5003 101.819 12.5731C102.261 9.97201 102.778 7.46658 104.263 5.26057C105.291 3.732 106.542 2.47734 108.43 2.24155C109.264 2.1386 110.106 2.14249 110.937 2.25327C113.98 2.66117 117.005 3.20926 120.052 3.5709C130.595 4.81532 140.976 6.94249 151.338 9.18434C152.809 9.5022 154.277 9.84041 155.762 10.0765C156.782 10.2479 157.69 10.8285 158.287 11.6913C162.354 17.0261 166.418 22.3637 170.48 27.704C171.07 28.4805 171.611 29.3028 172.25 30.0336C173.583 31.5596 173.698 33.3338 173.381 35.2483C172.17 42.5865 170.985 49.9288 169.772 57.2666C169.419 59.406 169.005 61.5357 168.619 63.6699L168.944 63.7246ZM152.161 13.9967C151.146 13.7243 150.294 13.4441 149.421 13.2704C141.982 11.7904 134.541 10.3225 127.097 8.86675C123.732 8.20837 120.361 7.57809 116.991 6.94668C115.279 6.62555 113.571 6.25826 111.845 6.03949C109.379 5.72714 108.529 6.32822 107.632 8.80144C106.827 10.9486 106.325 13.1996 106.139 15.4865C106.046 16.7835 105.885 18.0751 105.656 19.3557C101.788 40.9478 97.9122 62.5384 94.0274 84.1271C93.9236 84.6116 93.8568 85.1035 93.8275 85.5981C93.7586 88.4601 94.8764 90.3967 97.8023 91.0522C109.147 93.5943 120.577 95.6598 132.048 97.5289C137.811 98.468 143.566 99.4571 149.324 100.429C150.747 100.669 152.16 100.982 153.589 101.169C156.161 101.505 157.581 100.455 158.037 97.7874C158.833 93.1496 159.555 88.4994 160.3 83.8536C160.733 81.1618 161.173 78.4712 161.571 75.7743C162.447 69.8299 163.205 63.8657 164.187 57.9387C165.28 51.3372 166.567 44.768 167.765 38.1836C167.85 37.7134 167.892 37.2355 167.956 36.7456C167.769 36.6573 167.575 36.5854 167.377 36.5304C163.751 35.9518 160.119 35.4112 156.501 34.7877C155.434 34.6036 154.393 34.2933 153.398 33.863C151.095 32.8622 150.528 31.8227 150.747 29.2385C150.924 27.1416 151.16 25.049 151.354 22.953C151.624 20.0599 151.878 17.1645 152.161 13.9967ZM155.838 30.1153L166.585 31.3561L156.261 17.485C156.113 21.9331 155.979 25.9186 155.839 30.1169L155.838 30.1153Z" fill="#111827"/>
<path d="M116.397 42.7826C116.371 43.5554 116.389 44.2987 116.307 45.0311C116.259 45.5786 116.123 46.1151 115.906 46.6188C115.736 47.0207 115.439 47.3528 115.063 47.5613C114.688 47.7695 114.256 47.8416 113.838 47.7657C113.428 47.6582 113.062 47.4197 112.792 47.0849C112.522 46.7501 112.363 46.3355 112.337 45.9C112.339 45.3448 112.393 44.7903 112.499 44.2447C112.576 43.7023 112.689 43.1648 112.803 42.5374C112.088 42.2298 111.414 41.9917 110.789 41.6576C109.924 41.238 109.097 40.7434 108.315 40.1793C107.387 39.4594 107.199 38.3988 107.673 37.5558C108.106 36.7873 108.988 36.4815 110.062 36.7818C111.048 37.0573 112.006 37.4447 113.003 37.6603C113.88 37.8561 114.777 37.947 115.677 37.9316C116.276 37.8777 116.859 37.7016 117.392 37.4135C117.735 37.2746 118.025 37.026 118.22 36.7048C118.415 36.3835 118.505 36.007 118.475 35.6316C118.452 35.2879 118.327 34.9609 118.116 34.6949C117.905 34.4289 117.619 34.237 117.297 34.1451C116.789 33.9617 116.26 33.8445 115.723 33.7961C114.946 33.7137 114.155 33.7467 113.379 33.6618C110.624 33.3617 108.958 31.0757 109.581 28.2889C110.195 25.5385 111.779 23.6297 114.561 22.9612C114.911 22.8772 115.264 22.8101 115.685 22.7202C115.93 21.9913 116.18 21.2368 116.435 20.4845C116.68 19.7627 117.135 19.3271 117.919 19.3841C118.287 19.3862 118.641 19.5293 118.91 19.7856C119.179 20.0418 119.344 20.3928 119.374 20.7701C119.443 21.6235 119.467 22.4805 119.444 23.3376C121.747 24.9489 121.902 25.3371 120.793 27.176C120.326 27.0078 119.85 26.8665 119.368 26.7531C118.316 26.5593 117.249 26.2478 116.198 26.296C114.277 26.3835 113.418 27.4421 113.241 29.7923C113.657 29.8675 114.092 29.968 114.534 30.0223C115.726 30.1679 116.947 30.1804 118.108 30.4512C120.53 31.0163 122.382 33.08 122.644 35.3845C122.943 38.0156 121.809 39.9686 119.673 41.3011C118.709 41.9023 117.597 42.2511 116.397 42.7826Z" fill="#111827"/>
<path d="M127.33 70.654C133.374 71.7473 139.417 72.8433 145.459 73.9423C146.172 74.0546 146.868 74.2516 147.535 74.5304C148.415 74.9282 148.82 75.7378 148.592 76.4438C148.489 76.807 148.27 77.1249 147.97 77.3456C147.671 77.5664 147.308 77.6775 146.941 77.6602C146.098 77.6866 145.255 77.636 144.422 77.5089C133.1 75.483 121.782 73.4396 110.466 71.3787C109.462 71.1971 108.475 70.9055 107.491 70.6241C107.093 70.5102 106.609 70.3847 106.375 70.088C106.067 69.6987 105.74 69.0777 105.842 68.663C105.943 68.2575 106.533 67.8797 106.984 67.6914C107.336 67.5441 107.813 67.668 108.225 67.7344C114.584 68.7603 120.942 69.7922 127.298 70.8297L127.33 70.654Z" fill="#111827"/>
<path d="M106.374 61.4319C106.267 60.0106 106.751 59.5453 107.736 59.6185C109.175 59.7249 110.617 59.8083 112.048 59.9796C123.276 61.3336 134.489 62.7898 145.605 64.8941C146.786 65.1136 147.946 65.4311 149.076 65.8433C150.138 66.2361 150.488 66.9751 150.242 67.8158C150.004 68.6272 149.263 69.0603 148.211 68.9453C147.614 68.8802 147.027 68.7312 146.434 68.6298C133.808 66.4302 121.182 64.2284 108.557 62.0241C107.816 61.8941 107.098 61.6314 106.374 61.4319Z" fill="#111827"/>
<path d="M108.275 52.8385C108.45 51.2701 108.54 51.166 109.569 51.1975C109.749 51.2092 109.928 51.2313 110.106 51.2641C114.745 51.9704 119.383 52.6878 124.023 53.3819C131.462 54.494 138.904 55.5807 146.341 56.704C147.588 56.8928 148.819 57.1957 150.051 57.4724C150.417 57.5179 150.75 57.7062 150.981 57.9988C151.213 58.291 151.325 58.6647 151.294 59.0428C151.273 59.7256 150.642 60.2162 149.705 60.2415C149.103 60.2401 148.503 60.1813 147.913 60.0646C143.106 59.251 138.306 58.4003 133.495 57.6067C127.557 56.6261 121.61 55.7072 115.674 54.7213C113.834 54.4157 112.012 54.0074 110.196 53.5868C109.539 53.3837 108.897 53.134 108.275 52.8385Z" fill="#111827"/>
<path d="M111.321 81.5633C109.78 81.2846 108.237 81.0137 106.699 80.7225C106.283 80.6564 105.876 80.5427 105.486 80.383C104.803 80.0781 104.392 79.4416 104.648 78.7508C104.829 78.2594 105.399 77.8558 105.88 77.5614C106.144 77.399 106.586 77.5136 106.943 77.5498C109.996 77.8584 113.05 78.166 116.101 78.5025C116.819 78.5791 117.529 78.7186 118.223 78.9196C118.548 79.0052 118.835 79.201 119.037 79.4754C119.239 79.7498 119.345 80.087 119.337 80.4328C119.368 81.2608 119.026 81.9547 118.257 82.1837C117.565 82.39 116.842 82.4532 116.13 82.3693C114.52 82.1593 112.928 81.8161 111.328 81.5267L111.321 81.5633Z" fill="#111827"/>
<path d="M69.8658 101.464C69.0582 101.479 68.2608 101.474 67.6204 101.47L67.1951 101.468L63.1529 93.9005C63.3922 93.6206 63.6428 93.3344 63.8989 93.0413C64.649 92.1836 65.4243 91.2964 66.1422 90.3393C67.0461 89.1349 66.9713 87.7405 65.9475 86.701L65.8823 86.6347C63.3228 84.0348 60.6756 81.3464 57.9528 78.8265C57.1793 78.1106 56.4968 77.7925 55.8142 77.8219C55.0927 77.8539 54.3785 78.2872 53.5676 79.1844C52.9807 79.8332 52.4136 80.4823 51.813 81.1697C51.6168 81.3949 51.4178 81.6222 51.2168 81.8517C49.4252 80.0366 47.1806 78.9527 44.0143 78.3695C44.0143 78.1861 44.0178 78.0046 44.0202 77.8248C44.0277 77.2446 44.0349 76.6969 44.0071 76.1371C43.8456 72.9094 42.9333 72.0253 39.7618 72.0244H39.7361C37.7506 72.0244 35.7349 72.0945 33.7859 72.1625C32.8586 72.1946 31.9341 72.2272 31.008 72.2524C29.5842 72.2913 28.7107 73.0762 28.5486 74.4621C28.4427 75.3689 28.3733 76.2746 28.312 77.0739C28.2926 77.3295 28.274 77.5736 28.2555 77.8019L21.0954 81.856C20.9485 81.6762 20.7987 81.4906 20.6467 81.3015C20.1523 80.6893 19.6411 80.0558 19.0877 79.4415C18.2966 78.5629 17.5324 78.1188 16.7508 78.0846C15.9893 78.0562 15.2218 78.4044 14.4055 79.1655C12.0766 81.3372 9.85452 83.5074 7.80142 85.6158C6.12072 87.341 6.04052 88.7924 7.51574 90.796C8.04158 91.5092 8.62694 92.1834 9.09714 92.7252C9.23413 92.8831 9.36245 93.0305 9.47851 93.1668L6.2852 101.767C5.95408 101.797 5.61788 101.825 5.27839 101.852C4.34666 101.928 3.38325 102.007 2.4252 102.136C0.679292 102.37 -0.000597828 103.138 3.94393e-07 104.872C3.94393e-07 108.219 0.0352895 111.006 0.10618 113.641C0.132502 114.621 0.40708 115.346 0.922747 115.796C1.45517 116.26 2.21163 116.43 3.23878 116.314C3.81637 116.25 4.39215 116.175 4.96824 116.099L5.11929 116.079C5.12291 116.112 5.13171 116.144 5.14532 116.174L8.75648 124.054C8.29166 124.411 7.82604 124.766 7.35963 125.121C6.85034 125.509 6.34185 125.898 5.83417 126.288C4.34789 127.433 4.07148 128.738 5.01218 130.167C6.5538 132.509 8.36644 135.214 10.3756 137.684C12.1541 139.871 13.5967 140.027 16.0919 138.308C17.1304 137.591 18.1638 136.869 19.205 136.14L20.4248 135.287C23.1413 137.448 25.8504 138.434 28.8576 138.39C28.8301 138.645 28.8032 138.887 28.7772 139.121C28.6994 139.818 28.6321 140.42 28.5899 141.035C28.4805 142.644 28.6967 143.642 29.2908 144.276C29.8699 144.892 30.8145 145.169 32.3459 145.169H32.4446C34.5205 145.153 36.6304 145.117 38.6706 145.082C39.5129 145.067 40.3549 145.053 41.1972 145.039C42.3718 145.021 43.2013 144.726 43.7355 144.136C44.2697 143.547 44.4833 142.69 44.3857 141.518C44.3199 140.711 44.2467 139.906 44.1806 139.182L44.1207 138.527L50.3919 135.881L50.5217 136.059C50.7544 136.376 50.9913 136.699 51.2252 137.024C51.3422 137.187 51.4561 137.352 51.5701 137.516C51.7747 137.812 51.9865 138.118 52.2147 138.409C53.3381 139.842 54.5756 140.146 56.2276 139.397C56.7716 139.168 57.2837 138.868 57.7497 138.506C58.2845 138.061 58.8199 137.616 59.3566 137.172C61.5437 135.358 63.8052 133.483 65.9543 131.551C66.9324 130.671 67.3817 129.934 67.4119 129.162C67.4418 128.375 67.0231 127.568 66.0539 126.548C65.3463 125.804 64.6323 125.065 63.9766 124.388L63.3186 123.706L67.4592 115.793C67.6276 115.776 67.8112 115.759 68.0065 115.741C68.6601 115.681 69.4722 115.606 70.2741 115.511C71.9841 115.308 72.5928 114.749 72.9882 113.017C73.7931 109.493 73.1677 106.053 72.5339 103.451C72.2111 102.124 71.2869 101.448 69.8658 101.464ZM62.7643 113.709C61.8915 117.239 60.6589 119.7 58.767 121.686C58.0001 122.492 58.0279 123.62 58.8436 124.783C59.5842 125.838 60.3565 126.861 61.1743 127.946C61.4647 128.331 61.7605 128.723 62.0614 129.126L54.9931 134.753C54.7963 134.518 54.6031 134.286 54.414 134.057C53.8583 133.388 53.3337 132.757 52.7797 132.136C51.3054 130.484 50.5319 130.552 48.6388 131.641C47.137 132.472 45.5553 133.149 43.9176 133.662C40.1593 134.917 39.8767 136.595 39.8578 139.209C39.8554 139.541 39.833 139.883 39.8091 140.245C39.8028 140.337 39.7968 140.43 39.7908 140.526H32.8215L32.7835 139.687C32.7485 138.906 32.7147 138.155 32.6767 137.405C32.5694 135.3 32.1255 134.539 29.846 134.456C26.4313 134.333 23.5589 133.332 21.0643 131.395C20.1152 130.657 19.0169 130.719 17.7062 131.582C16.729 132.226 15.7673 132.891 14.7488 133.596C14.3754 133.854 13.9927 134.119 13.6009 134.388L9.14593 128.402C9.4215 128.171 9.69348 127.941 9.96187 127.712C10.7342 127.056 11.4631 126.436 12.2307 125.845C13.4971 124.872 13.6021 124.3 12.767 122.93C11.2523 120.446 9.68791 117.437 9.56857 113.952C9.52729 112.732 8.81242 112.091 7.44488 112.047C6.64057 112.021 5.82968 112.026 4.96794 112.032C4.66255 112.034 4.34875 112.036 4.02332 112.037L3.71975 106.173C4.16064 106.127 4.58717 106.078 5.00264 106.031C6.10935 105.905 7.15624 105.787 8.19415 105.739C9.47584 105.679 10.2257 104.996 10.4231 103.707C10.9986 99.9511 12.0602 97.0406 13.7636 94.5462C14.042 94.1918 14.195 93.755 14.1987 93.3041C14.2024 92.8531 14.0565 92.4136 13.7839 92.0548C13.1562 91.1436 12.5259 90.2353 11.893 89.3297L11.3118 88.4944L17.0179 82.6758C17.2429 82.8955 17.4679 83.1154 17.693 83.3351C18.3511 83.9785 19.03 84.6432 19.7105 85.289C21.0457 86.5548 21.4259 86.3815 22.8195 85.446C24.5812 84.2626 26.4662 83.0345 28.4383 82.1654C30.1343 81.4184 31.6511 80.5503 31.579 78.1665C31.5874 77.6629 31.6553 77.1622 31.7815 76.6747C31.8222 76.485 31.8632 76.2902 31.9012 76.0888H39.8497C39.8515 76.2527 39.8548 76.4184 39.8578 76.5853C39.8692 77.1807 39.8808 77.796 39.8378 78.3984C39.6691 80.7439 40.4524 81.74 42.6318 81.9506C44.9349 82.1736 46.9491 83.1991 49.1587 85.277C50.3342 86.3815 50.9832 86.5894 52.285 85.5561C53.1524 84.8669 53.9564 84.1397 54.8068 83.3686C55.0984 83.1045 55.3927 82.8394 55.6897 82.5731L61.389 88.585C61.2547 88.7262 61.1108 88.8756 60.9598 89.0326C60.3741 89.6427 59.7098 90.3345 59.0527 91.0582C57.2939 92.9961 57.2828 93.7252 58.9815 95.643C60.7812 97.6227 62.0492 100.028 62.6662 102.634C63.0105 104.141 63.8743 104.873 65.3848 104.941C66.1099 104.973 66.8346 105.013 67.6518 105.056L68.5982 105.106L68.9344 111.402H68.0505C67.2627 111.4 66.5517 111.399 65.8404 111.405C63.9865 111.42 63.1813 112.024 62.7643 113.709Z" fill="#D8DADD"/>
<path d="M39.1213 89.6652C36.187 89.3933 33.23 89.8114 30.4857 90.8861C27.7411 91.9608 25.2849 93.6625 23.3126 95.8558C21.3402 98.0491 19.906 100.673 19.1242 103.52C18.3425 106.366 18.2347 109.356 18.8094 112.251C20.3128 119.387 24.0053 123.9 30.0986 126.05C31.8951 126.671 33.7846 126.978 35.6851 126.957C37.2665 126.944 38.8438 126.791 40.3985 126.499C50.4487 124.698 55.9822 117.631 55.9777 106.598V106.591C55.8557 103.14 54.7074 99.8035 52.6797 97.0106C49.4864 92.7325 44.925 90.2609 39.1213 89.6652ZM51.2084 111.234C50.0144 117.216 46.2482 120.691 39.6953 121.858C37.574 122.236 34.7914 122.564 32.082 121.744C27.3638 120.316 24.5315 116.992 23.4236 111.583C23.2502 110.631 23.1367 109.668 23.0838 108.701C23.0497 108.252 23.0159 107.805 22.9701 107.359C22.9617 105.561 23.3157 103.781 24.0109 102.124C24.706 100.467 25.728 98.9672 27.0156 97.7154C29.7583 95.0685 33.6111 93.6941 37.8384 93.8278C42.4023 93.9776 46.0179 95.622 48.5846 98.7124C51.3639 102.06 52.2224 106.156 51.2084 111.234Z" fill="#D8DADD"/>
<path d="M114.297 132.823C113.808 132.832 113.326 132.829 112.938 132.827L112.68 132.826L110.233 128.244C110.378 128.074 110.53 127.901 110.685 127.724C111.139 127.205 111.608 126.667 112.043 126.088C112.59 125.359 112.545 124.515 111.925 123.885L111.886 123.845C110.336 122.271 108.733 120.644 107.085 119.118C106.617 118.685 106.204 118.492 105.79 118.51C105.354 118.529 104.921 118.792 104.43 119.335C104.075 119.727 103.732 120.12 103.368 120.537C103.249 120.673 103.129 120.811 103.007 120.95C101.922 119.851 100.564 119.194 98.6466 118.841C98.6466 118.73 98.6487 118.62 98.6502 118.512C98.6547 118.16 98.6591 117.829 98.6422 117.49C98.5444 115.536 97.9921 115.001 96.0721 115H96.0565C94.8545 115 93.6342 115.042 92.4542 115.084C91.8928 115.103 91.3331 115.123 90.7725 115.138C89.9105 115.162 89.3817 115.637 89.2836 116.476C89.2195 117.025 89.1774 117.573 89.1403 118.057C89.1285 118.212 89.1173 118.36 89.1061 118.498L84.7713 120.952C84.6824 120.843 84.5917 120.731 84.4997 120.616C84.2004 120.246 83.8909 119.862 83.5559 119.49C83.0769 118.958 82.6142 118.69 82.1411 118.669C81.68 118.652 81.2154 118.862 80.7212 119.323C79.3113 120.638 77.966 121.952 76.723 123.228C75.7055 124.273 75.657 125.151 76.5501 126.364C76.8684 126.796 77.2228 127.204 77.5075 127.532C77.5904 127.628 77.6681 127.717 77.7384 127.8L75.8051 133.007C75.6046 133.025 75.4011 133.041 75.1956 133.058C74.6315 133.104 74.0482 133.152 73.4682 133.23C72.4112 133.372 71.9996 133.836 72 134.886C72 136.913 72.0214 138.6 72.0643 140.195C72.0802 140.788 72.2464 141.227 72.5586 141.499C72.881 141.781 73.3389 141.884 73.9608 141.813C74.3105 141.774 74.659 141.729 75.0078 141.683L75.0993 141.671C75.1014 141.691 75.1068 141.71 75.115 141.729L77.3012 146.499C77.0198 146.715 76.7379 146.93 76.4556 147.145C76.1472 147.38 75.8394 147.616 75.532 147.851C74.6322 148.545 74.4649 149.335 75.0344 150.2C75.9677 151.618 77.0651 153.255 78.2814 154.751C79.3582 156.075 80.2315 156.169 81.7421 155.128C82.3709 154.695 82.9965 154.257 83.6269 153.816L84.3653 153.3C86.0099 154.608 87.65 155.205 89.4706 155.178C89.454 155.333 89.4377 155.479 89.4219 155.621C89.3748 156.043 89.3341 156.407 89.3086 156.78C89.2423 157.753 89.3732 158.358 89.7328 158.741C90.0835 159.115 90.6553 159.282 91.5825 159.282H91.6422C92.899 159.273 94.1763 159.251 95.4115 159.23C95.9214 159.22 96.4312 159.212 96.9411 159.204C97.6522 159.192 98.1544 159.014 98.4778 158.657C98.8012 158.3 98.9305 157.782 98.8715 157.072C98.8316 156.584 98.7873 156.096 98.7472 155.658L98.711 155.261L102.508 153.659L102.586 153.767C102.727 153.959 102.871 154.155 103.012 154.351C103.083 154.45 103.152 154.55 103.221 154.649C103.345 154.828 103.473 155.014 103.611 155.19C104.291 156.057 105.04 156.241 106.041 155.788C106.37 155.649 106.68 155.468 106.962 155.248C107.286 154.979 107.61 154.71 107.935 154.441C109.259 153.343 110.628 152.208 111.929 151.038C112.521 150.505 112.793 150.059 112.812 149.591C112.83 149.115 112.576 148.627 111.99 148.009C111.561 147.558 111.129 147.111 110.732 146.701L110.334 146.289L112.84 141.498C112.942 141.488 113.053 141.477 113.172 141.467C113.567 141.43 114.059 141.384 114.544 141.327C115.58 141.204 115.948 140.866 116.188 139.817C116.675 137.684 116.296 135.601 115.913 134.026C115.717 133.223 115.158 132.813 114.297 132.823ZM109.998 140.236C109.47 142.373 108.723 143.863 107.578 145.066C107.114 145.553 107.131 146.237 107.624 146.94C108.073 147.579 108.54 148.199 109.035 148.855C109.211 149.088 109.39 149.326 109.572 149.57L105.293 152.976C105.174 152.834 105.057 152.694 104.943 152.555C104.606 152.15 104.289 151.768 103.953 151.392C103.061 150.392 102.592 150.433 101.446 151.092C100.537 151.595 99.5795 152.005 98.5881 152.316C96.3127 153.076 96.1416 154.091 96.1302 155.674C96.1288 155.875 96.1152 156.082 96.1007 156.301C96.0969 156.357 96.0933 156.413 96.0897 156.472H91.8704L91.8474 155.964C91.8262 155.491 91.8057 155.036 91.7828 154.582C91.7177 153.308 91.449 152.847 90.069 152.797C88.0017 152.722 86.2627 152.116 84.7525 150.943C84.1779 150.497 83.5129 150.534 82.7194 151.057C82.1278 151.447 81.5457 151.849 80.9291 152.276C80.703 152.432 80.4713 152.592 80.2341 152.756L77.537 149.132C77.7038 148.992 77.8685 148.852 78.031 148.714C78.4986 148.316 78.9399 147.941 79.4045 147.584C80.1712 146.994 80.2348 146.648 79.7292 145.819C78.8122 144.315 77.8651 142.493 77.7929 140.383C77.7679 139.645 77.3351 139.256 76.5072 139.23C76.0203 139.214 75.5293 139.217 75.0076 139.221C74.8227 139.222 74.6328 139.223 74.4357 139.224L74.252 135.674C74.5189 135.646 74.7771 135.616 75.0286 135.588C75.6986 135.512 76.3324 135.44 76.9608 135.411C77.7367 135.375 78.1907 134.961 78.3102 134.181C78.6586 131.907 79.3013 130.145 80.3326 128.635C80.5011 128.42 80.5938 128.156 80.596 127.883C80.5982 127.61 80.5099 127.344 80.3449 127.127C79.9649 126.575 79.5833 126.025 79.2001 125.477L78.8482 124.971L82.3028 121.448C82.439 121.581 82.5752 121.715 82.7115 121.848C83.1099 122.237 83.5209 122.639 83.9329 123.03C84.7412 123.797 84.9714 123.692 85.8151 123.126C86.8817 122.409 88.0228 121.666 89.2167 121.139C90.2435 120.687 91.1618 120.162 91.1182 118.718C91.1232 118.414 91.1643 118.11 91.2408 117.815C91.2654 117.7 91.2902 117.583 91.3132 117.461H96.1253C96.1264 117.56 96.1284 117.66 96.1302 117.761C96.1371 118.122 96.1442 118.494 96.1181 118.859C96.016 120.279 96.4902 120.882 97.8096 121.009C99.2039 121.144 100.423 121.765 101.761 123.023C102.473 123.692 102.866 123.818 103.654 123.192C104.179 122.775 104.666 122.335 105.18 121.868C105.357 121.708 105.535 121.547 105.715 121.386L109.165 125.026C109.084 125.111 108.997 125.202 108.906 125.297C108.551 125.666 108.149 126.085 107.751 126.523C106.686 127.696 106.679 128.138 107.708 129.299C108.797 130.497 109.565 131.954 109.939 133.531C110.147 134.443 110.67 134.887 111.584 134.928C112.023 134.947 112.462 134.971 112.957 134.998L113.53 135.028L113.733 138.839H113.198C112.721 138.838 112.291 138.838 111.86 138.841C110.738 138.851 110.25 139.216 109.998 140.236Z" fill="#D8DADD"/>
<path d="M95.6846 125.68C93.9082 125.515 92.118 125.768 90.4565 126.419C88.7949 127.07 87.3079 128.1 86.1139 129.428C84.9197 130.756 84.0515 132.344 83.5782 134.068C83.1049 135.791 83.0397 137.601 83.3876 139.354C84.2978 143.674 86.5333 146.406 90.2222 147.708C91.3098 148.084 92.4537 148.269 93.6043 148.257C94.5617 148.249 95.5166 148.156 96.4578 147.979C102.542 146.889 105.892 142.61 105.89 135.931V135.927C105.816 133.838 105.121 131.818 103.893 130.127C101.96 127.537 99.1982 126.041 95.6846 125.68ZM103.002 138.738C102.279 142.359 99.9993 144.463 96.0321 145.17C94.7479 145.398 93.0632 145.597 91.423 145.101C88.5665 144.236 86.8518 142.224 86.1811 138.949C86.0761 138.372 86.0074 137.79 85.9753 137.204C85.9547 136.932 85.9342 136.662 85.9065 136.392C85.9015 135.304 86.1158 134.226 86.5366 133.222C86.9575 132.219 87.5762 131.311 88.3557 130.554C90.0161 128.951 92.3487 128.119 94.9079 128.2C97.6709 128.291 99.8599 129.286 101.414 131.157C103.096 133.184 103.616 135.664 103.002 138.738Z" fill="#D8DADD"/>
</svg>
